# xmcd CD database file
#
# Track frame offsets:
#	150
#	21345
#	42056
#	56589
#	73364
#	94209
#	110342
#	127398
#	147656
#	167696
#	186452
#	206079
#	222734
#	236245
#	253800
#	273231
#
# Disc length: 3896 seconds
#
# Revision: 1
# Processed by: cddbd v1.5.2PL0 Copyright (c) Steve Scherf et al.
# Submitted via: CDex 1.51
#
DISCID=100f3610
DTITLE=Daniel - Continental
DYEAR=1998
DGENRE=Country
TTITLE0=Adoro Amar Voce
TTITLE1=Declaracao De Amor
TTITLE2=Dengo
TTITLE3=Saudade Faz Doer
TTITLE4=Doendo De Saudade
TTITLE5=Nao Empurra Nao
TTITLE6=Quem Ama E Que Faz
TTITLE7=Pra Falar A Verdade
TTITLE8=E Quando Voce Me Deixou
TTITLE9=Eu Quero Ter Felicidade
TTITLE10=Me Guardo Pra Voce
TTITLE11=Uma Noite
TTITLE12=Peao Apaixonado
TTITLE13=Daqui Nao Saio Nao
TTITLE14=A Paixao Acaba Sempre Assim
TTITLE15=Paixao Caipira
EXTD=Year 1998 YEAR: 1998
EXTT0=
EXTT1=
EXTT2=
EXTT3=
EXTT4=
EXTT5=
EXTT6=
EXTT7=
EXTT8=
EXTT9=
EXTT10=
EXTT11=
EXTT12=
EXTT13=
EXTT14=
EXTT15=
PLAYORDER=
